<?xml version="1.0" encoding="UTF-8"?>
<!DOCTYPE svg PUBLIC "-//W3C//DTD SVG 1.1//EN" "http://www.w3.org/Graphics/SVG/1.1/DTD/svg11.dtd">
<svg xmlns="http://www.w3.org/2000/svg" version="1.1" width="512px" height="512px" style="shape-rendering:geometricPrecision; text-rendering:geometricPrecision; image-rendering:optimizeQuality; fill-rule:evenodd; clip-rule:evenodd" xmlns:xlink="http://www.w3.org/1999/xlink">
<g><path style="opacity:0.981" fill="#000000" d="M 82.5,207.5 C 130.797,203.636 150.63,225.636 142,273.5C 137.087,290.412 125.92,300.245 108.5,303C 63,308.167 42.8333,288 48,242.5C 51.6798,222.988 63.1798,211.321 82.5,207.5 Z"/></g>
<g><path style="opacity:0.981" fill="#000000" d="M 242.5,207.5 C 290.797,203.636 310.63,225.636 302,273.5C 297.087,290.412 285.92,300.245 268.5,303C 223,308.167 202.833,288 208,242.5C 211.68,222.988 223.18,211.321 242.5,207.5 Z"/></g>
<g><path style="opacity:0.981" fill="#000000" d="M 402.5,207.5 C 450.797,203.636 470.63,225.636 462,273.5C 457.087,290.412 445.92,300.245 428.5,303C 383,308.167 362.833,288 368,242.5C 371.68,222.988 383.18,211.321 402.5,207.5 Z"/></g>
</svg>
