<?xml version="1.0" encoding="UTF-8"?>
<!DOCTYPE svg PUBLIC "-//W3C//DTD SVG 1.1//EN" "http://www.w3.org/Graphics/SVG/1.1/DTD/svg11.dtd">
<svg xmlns="http://www.w3.org/2000/svg" version="1.1" width="512px" height="512px" style="shape-rendering:geometricPrecision; text-rendering:geometricPrecision; image-rendering:optimizeQuality; fill-rule:evenodd; clip-rule:evenodd" xmlns:xlink="http://www.w3.org/1999/xlink">
<g><path style="opacity:0.969" fill="#000000" d="M 249.5,20.5 C 262.908,18.1148 272.075,23.1148 277,35.5C 277.333,133.833 277.667,232.167 278,330.5C 309.528,298.639 341.361,267.139 373.5,236C 384.664,230.633 394.497,232.466 403,241.5C 409.155,251.062 408.821,260.395 402,269.5C 358.5,313 315,356.5 271.5,400C 261.749,406.929 251.749,407.262 241.5,401C 197.667,357.167 153.833,313.333 110,269.5C 102.741,257.047 104.575,246.214 115.5,237C 123.5,232.333 131.5,232.333 139.5,237C 170.667,268.167 201.833,299.333 233,330.5C 233.333,234.5 233.667,138.5 234,42.5C 234.53,31.7348 239.697,24.4015 249.5,20.5 Z"/></g>
<g><path style="opacity:0.971" fill="#000000" d="M 41.5,361.5 C 51.8577,361.929 59.0243,366.929 63,376.5C 64.4266,400.132 64.9266,423.799 64.5,447.5C 192.167,447.5 319.833,447.5 447.5,447.5C 447.04,423.781 447.54,400.114 449,376.5C 457.879,361.656 469.712,358.822 484.5,368C 487.567,371.297 489.733,375.131 491,379.5C 491.667,411.167 491.667,442.833 491,474.5C 488.833,483.333 483.333,488.833 474.5,491C 328.833,491.667 183.167,491.667 37.5,491C 29.1073,488.941 23.6073,483.775 21,475.5C 20.3333,443.167 20.3333,410.833 21,378.5C 24.1085,368.213 30.9418,362.546 41.5,361.5 Z"/></g>
</svg>
